<svg xmlns="http://www.w3.org/2000/svg" viewBox="0 0 27 26" fill="none"><path d="M13.8 13.5c2.4 0 4.4-1.9 4.4-4.3s-1.9-4.3-4.3-4.3-4.3 1.9-4.3 4.3c-.1 2.3 1.8 4.2 4.2 4.3zm.1-6.1c1 0 1.8.9 1.8 1.8s-.8 1.7-1.8 1.7-1.8-.8-1.8-1.8c0-.9.8-1.7 1.8-1.7zM18.6 14.4c-.3-.7-1.1-1-1.8-.6-.4.2-.8.4-1.3.6-.5.1-.9.2-1.4.3-1 .1-1.9-.1-2.7-.6-.2-.1-.3-.1-.5-.2-.8-.5-1.8 0-1.9.9 0 .5.2.9.6 1.2.7.4 1.5.8 2.4 1h.1c.1 0 .1 0 0 .1-.5.4-.9.9-1.4 1.4l-.9.9c-.4.4-.5.8-.3 1.3s.5.8 1 .9H10.8c.1 0 .2 0 .4-.1s.3-.2.4-.3l2.3-2.3c.1-.1.1-.1.1 0 .8.7 1.5 1.5 2.3 2.2.2.2.5.4.8.4h.2c.2 0 .3-.1.4-.1.8-.4 1-1.4.3-2l-1.3-1.3-1-1c-.1-.1-.1-.1 0-.1.6-.1 1.2-.4 1.8-.6.2-.1.5-.2.7-.4.3-.2.5-.5.6-.9V15v-.2c-.1-.1-.1-.2-.2-.4z"/></svg>
