<svg xmlns="http://www.w3.org/2000/svg" viewBox="0 0 27 26" fill="none"><path d="M19.5 15.1c-1.1-1-1.2-1-.2-2.2 1.2-1.5 2.8-3.4 1.3-3.4H18c-.5 0-.6.3-.7.7-.6 1.5-1.9 3.5-2.4 3.2-.5-.3-.2-1.5-.2-3.4.1-.2 0-.5-.2-.6-.2-.2-.4-.3-.6-.3-.4-.1-.8-.2-1.2-.2-1.5 0-2.5.6-2 .7 1 .2 1 2.4.7 3.3-.4 1.7-2-1.3-2.7-2.8-.1-.3-.4-.6-.8-.6h-2c-.3 0-.6.1-.6.3 0 .4 2 4.3 3.8 6.2 1.8 1.9 3.6 1.7 4.9 1.7.2 0 .3-.1.4-.2s.2-.2.2-.4c0-1.3.5-1.9 1.3-1 1 .9 1.2 1.6 2.4 1.6h2.1c.6 0 .7-.2.7-.4.1-.4-.8-1.5-1.6-2.2z"/></svg>